{"glyphs":{":":{"x_min":0,"x_max":434,"ha":434,"o":"m 222 391 q 191 391 172 409 q 152 427 152 455 q 152 460 150 471 q 147 482 147 488 q 147 516 168 533 q 189 551 218 551 q 291 551 291 455 q 291 427 271 409 q 251 391 222 391 z m 229 60 q 154 60 154 174 q 154 202 176 220 q 197 237 225 237 q 299 237 299 125 q 299 97 279 78 q 259 60 229 60 z"},"$":{"x_min":0,"x_max":693,"ha":693,"o":"m 287 563 q 207 533 207 488 q 207 449 287 439 z m 392 125 q 499 162 499 217 q 499 300 392 311 z m 643 210 q 643 118 564 58 q 500 8 392 -15 l 392 -137 q 392 -189 335 -189 q 311 -189 297 -170 q 287 -155 287 -137 l 287 -29 q 268 -30 250 -30 q 151 -30 97 -3 q 47 20 47 57 q 47 126 125 126 q 145 126 192 112 q 240 98 254 98 q 268 98 287 100 l 287 315 q 201 321 141 352 q 62 392 62 462 q 62 543 133 611 q 195 671 287 700 l 287 781 q 287 838 340 838 q 392 838 392 781 l 392 716 q 447 713 510 692 q 590 666 590 631 q 590 604 570 584 q 550 564 522 564 q 499 564 457 574 q 413 583 392 584 l 392 434 q 398 434 402 434 q 510 425 573 373 q 643 314 643 210 z"},"?":{"x_min":0,"x_max":566,"ha":566,"o":"m 424 316 q 420 313 343 259 q 294 225 268 196 q 245 170 216 170 q 188 170 167 191 q 146 211 146 237 q 146 276 209 325 q 268 366 326 407 q 389 455 389 494 q 389 539 343 579 q 296 619 247 619 q 220 619 174 589 q 128 559 109 559 q 81 559 61 580 q 41 601 41 627 q 41 676 126 716 q 199 751 247 751 q 353 751 438 673 q 524 595 524 494 q 524 394 424 316 z m 189 -35 q 162 -35 139 -18 q 114 2 114 31 q 114 64 133 92 q 157 127 196 127 q 229 127 248 102 q 263 82 263 54 q 263 24 247 -2 q 226 -35 189 -35 z"},"<":{"x_min":0,"x_max":610,"ha":610,"o":"m 432 418 q 391 377 304 301 q 340 265 417 198 q 442 178 442 154 q 442 130 423 113 q 404 95 378 95 q 351 95 310 129 l 253 184 q 208 228 167 242 q 117 259 117 296 q 117 330 161 349 q 205 369 259 420 q 332 492 347 503 q 367 518 389 518 q 415 518 434 500 q 453 483 453 459 q 453 437 432 418 z"},"'":{"x_min":0,"x_max":434,"ha":434,"o":"m 278 679 l 273 509 q 273 485 255 469 q 238 453 210 453 q 184 453 166 469 q 147 485 147 509 q 147 578 153 708 q 156 741 172 757 q 188 773 218 773 q 245 773 263 757 q 281 741 281 717 q 281 710 279 698 q 278 685 278 679 z"},"=":{"x_min":0,"x_max":610,"ha":610,"o":"m 450 374 l 221 374 q 210 374 188 373 q 166 372 155 372 q 127 372 110 389 q 92 405 92 429 q 92 488 189 488 q 195 488 207 488 l 222 488 l 450 487 q 477 487 495 471 q 513 455 513 431 q 513 406 495 390 q 477 374 450 374 z m 443 136 q 411 136 346 137 q 282 138 250 138 q 235 138 206 136 q 177 135 162 135 q 134 135 116 150 q 98 166 98 191 q 98 244 158 248 q 209 251 250 251 q 282 251 346 250 q 411 249 443 249 q 470 249 488 233 q 506 217 506 192 q 506 168 488 152 q 470 136 443 136 z"},"a":{"x_min":0,"x_max":556,"ha":556,"o":"m 471 -32 q 449 -32 400 17 q 355 -5 321 -16 q 287 -27 263 -27 q 145 -27 86 36 q 27 99 27 225 q 27 342 114 426 q 201 510 322 510 q 369 510 430 483 q 503 452 503 410 q 503 392 492 379 q 487 359 485 330 q 482 300 482 261 q 482 167 495 126 q 497 122 518 76 q 537 34 537 28 q 537 2 517 -15 q 497 -32 471 -32 z m 350 303 q 350 318 352 339 q 354 359 359 384 q 349 389 342 391 q 334 393 329 393 q 262 393 212 341 q 163 289 163 221 q 163 155 186 122 q 209 89 256 89 q 287 89 314 99 q 341 109 365 129 q 350 245 350 303 z"},"L":{"x_min":0,"x_max":551,"ha":551,"o":"m 509 19 q 451 -7 331 -27 q 220 -45 149 -45 q 30 -45 30 60 q 30 51 40 214 q 52 426 52 686 q 52 714 72 733 q 91 753 120 753 q 149 753 169 733 q 188 714 188 686 q 188 426 175 207 q 171 167 166 87 q 282 89 463 144 q 474 147 484 147 q 515 147 534 125 q 551 104 551 80 q 551 38 509 19 z"},"3":{"x_min":0,"x_max":610,"ha":610,"o":"m 448 396 q 548 339 548 216 q 548 116 475 47 q 401 -22 295 -22 q 217 -22 154 9 q 81 46 56 115 q 52 125 52 137 q 52 164 74 182 q 94 199 121 199 q 151 199 170 174 q 201 132 206 128 q 236 104 295 104 q 342 104 377 132 q 412 160 412 199 q 412 320 248 336 q 176 343 176 396 q 176 437 232 456 q 285 467 337 479 q 370 490 387 506 q 403 523 404 546 q 406 619 290 619 q 252 619 207 590 q 161 561 145 561 q 117 561 97 581 q 78 601 78 626 q 78 667 160 708 q 233 745 279 745 q 390 745 457 697 q 531 645 531 547 q 531 493 510 455 q 489 417 448 396 z"},";":{"x_min":0,"x_max":434,"ha":434,"o":"m 235 385 q 206 385 186 404 q 166 422 166 451 q 166 457 164 468 q 161 479 161 484 q 161 512 183 531 q 203 549 231 549 q 305 549 305 451 q 305 422 285 404 q 265 385 235 385 z m 264 8 q 249 -8 244 -14 q 231 -30 230 -40 q 223 -95 168 -95 q 139 -95 122 -77 q 104 -59 104 -33 q 104 2 150 65 q 199 134 238 134 q 263 134 283 117 q 302 99 302 75 q 302 51 264 8 z"},"J":{"x_min":0,"x_max":665,"ha":665,"o":"m 584 600 q 576 600 557 601 q 538 603 526 603 l 488 603 q 487 611 487 568 q 487 219 438 59 q 402 -59 307 -59 q 216 -59 127 4 q 26 74 26 168 q 26 244 95 244 q 164 244 164 169 q 164 140 214 107 q 263 74 307 74 q 324 74 332 139 q 334 155 343 291 q 350 402 350 568 q 350 575 349 600 l 337 600 q 316 599 280 600 q 236 602 222 602 q 193 602 173 620 q 152 639 152 669 q 152 735 239 735 q 256 735 289 734 q 321 733 337 733 q 368 733 429 736 q 491 740 521 740 q 652 740 652 667 q 652 642 635 622 q 615 600 584 600 z"},"V":{"x_min":0,"x_max":675,"ha":675,"o":"m 310 205 q 383 391 424 500 q 445 559 466 617 q 495 687 528 724 q 550 749 581 749 q 609 749 630 730 q 651 710 651 683 q 651 663 638 644 q 611 606 589 552 q 588 550 553 456 q 509 343 422 117 q 400 58 367 -1 q 346 -39 306 -39 q 255 -39 235 9 q 176 151 103 418 q 83 484 62 550 q 35 642 35 678 q 35 707 57 726 q 77 743 104 743 q 151 743 170 694 q 180 652 189 610 q 206 557 236 452 q 274 312 310 205 z"},"\"":{"x_min":0,"x_max":438,"ha":438,"o":"m 391 679 l 387 509 q 386 485 369 469 q 351 453 324 453 q 297 453 279 469 q 260 485 261 509 q 260 578 266 708 q 270 741 286 757 q 302 773 331 773 q 358 773 376 757 q 394 741 394 717 q 394 710 393 698 q 391 685 391 679 z m 104 455 q 37 455 37 547 q 37 576 39 633 q 40 690 40 719 q 40 743 58 759 q 76 775 103 775 q 130 775 148 759 q 166 743 166 719 q 166 691 165 636 q 163 581 163 553 q 163 545 166 531 q 168 517 168 510 q 168 486 148 470 q 129 455 104 455 z"},"7":{"x_min":0,"x_max":610,"ha":610,"o":"m 394 603 q 339 603 190 607 q 153 607 80 610 q 15 616 15 673 q 15 700 34 718 q 54 736 82 736 q 144 736 267 733 q 390 729 452 729 l 541 729 q 567 729 587 719 q 612 706 612 681 q 612 654 583 617 q 559 590 534 562 q 472 494 419 394 q 402 362 332 210 q 322 190 290 101 q 266 34 240 -4 q 221 -32 186 -32 q 159 -32 138 -14 q 117 4 117 31 q 117 52 150 128 q 203 251 255 375 q 322 518 394 603 z"},"S":{"x_min":0,"x_max":693,"ha":693,"o":"m 279 -30 q 155 -30 83 25 q 23 71 23 131 q 23 162 42 182 q 61 203 93 203 q 137 203 158 158 q 186 98 284 98 q 368 98 446 134 q 528 172 528 217 q 528 278 477 298 q 441 312 332 314 q 248 316 181 346 q 90 387 92 462 q 93 558 193 637 q 293 716 414 716 q 462 716 532 694 q 620 667 620 631 q 620 606 602 586 q 583 564 552 564 q 529 564 483 574 q 438 584 414 584 q 351 583 294 554 q 236 523 236 488 q 236 469 254 457 q 271 445 307 440 q 370 437 432 434 q 540 425 603 373 q 672 314 672 210 q 672 84 529 20 q 419 -30 279 -30 z"},"}":{"x_min":0,"x_max":366,"ha":366,"o":"m 339 230 q 316 213 293 196 q 267 175 267 150 q 267 137 271 111 q 275 85 275 73 q 275 -14 232 -91 q 179 -188 88 -188 q -8 -188 -8 -124 q -8 -83 23 -69 q 41 -62 88 -62 q 116 -62 133 -6 q 145 35 145 73 q 145 88 141 119 q 137 150 137 166 q 137 209 188 276 q 163 297 146 333 q 129 366 129 394 q 129 414 133 490 q 136 565 136 585 q 136 661 84 667 q 31 672 20 676 q -17 688 -17 723 q -17 759 21 779 q 50 793 82 793 q 118 793 154 778 q 263 733 263 572 q 263 555 261 479 q 259 406 259 385 q 292 369 323 338 q 360 301 360 272 q 360 250 339 230 z"},"Z":{"x_min":0,"x_max":693,"ha":693,"o":"m 622 583 q 595 567 556 541 q 474 480 361 331 q 274 215 188 98 l 186 96 q 222 97 358 103 q 465 107 528 107 q 598 107 623 102 q 682 89 684 46 q 685 14 661 -5 q 641 -21 612 -21 q 598 -21 569 -19 q 541 -18 527 -18 q 453 -18 304 -21 q 155 -25 81 -25 q 49 -25 29 -9 q 6 9 6 41 q 6 76 37 124 q 46 139 92 198 q 172 305 252 411 q 348 534 432 610 q 355 605 315 605 l 118 605 q 113 605 103 604 q 92 604 87 604 q 58 604 38 620 q 16 639 16 670 q 16 737 115 737 q 148 737 215 733 q 282 729 316 729 q 354 729 428 730 q 503 732 541 732 q 687 732 687 669 q 687 628 622 583 z"},"x":{"x_min":0,"x_max":590,"ha":590,"o":"m 531 396 q 503 372 459 333 l 384 264 l 533 82 q 549 62 549 42 q 549 17 529 -2 q 508 -21 482 -21 q 455 -21 433 2 q 389 50 288 174 q 249 135 166 59 q 139 37 125 22 q 104 0 77 0 q 51 0 31 19 q 10 38 10 63 q 10 92 50 128 q 83 156 115 184 q 145 213 208 275 q 180 313 152 351 q 119 396 89 421 q 63 442 63 468 q 63 494 83 513 q 102 533 129 533 q 164 533 225 463 l 303 363 q 345 398 386 433 q 438 478 460 510 q 481 540 514 540 q 540 540 561 521 q 582 502 582 477 q 582 445 531 396 z"},")":{"x_min":0,"x_max":366,"ha":366,"o":"m 143 -198 q 118 -211 98 -211 q 73 -211 54 -194 q 35 -177 35 -152 q 35 -123 64 -100 q 90 -81 115 -62 q 222 43 222 273 q 222 363 195 456 q 166 561 115 617 q 90 641 66 665 q 35 698 35 721 q 35 746 54 765 q 73 784 99 784 q 117 784 142 768 q 244 699 306 548 q 360 415 360 284 q 360 -81 143 -198 z"},"&":{"x_min":0,"x_max":654,"ha":654,"o":"m 574 -46 q 541 -46 520 -14 q 505 11 476 60 q 377 -21 260 -21 q 162 -21 92 38 q 17 99 17 193 q 17 284 90 351 q 114 373 244 456 q 215 534 215 593 q 215 646 260 702 q 309 764 366 764 q 433 764 475 721 q 516 681 516 622 q 516 509 399 421 q 434 352 475 288 l 491 365 q 507 411 546 411 q 575 411 593 384 q 608 361 608 333 q 608 242 560 159 q 639 42 639 13 q 639 -12 619 -29 q 599 -46 574 -46 z m 366 643 q 353 642 344 624 q 336 609 336 593 q 336 586 346 556 q 356 521 356 518 q 373 534 388 560 q 405 588 405 604 q 405 626 399 634 q 391 646 366 643 z m 299 352 q 248 319 198 287 q 143 244 143 193 q 143 151 178 125 q 212 100 260 100 q 342 100 406 162 q 376 207 299 352 z"},"_":{"x_min":0,"x_max":627,"ha":627,"o":"m -37 -168 l -37 -78 l 666 -78 l 666 -168 z"},"v":{"x_min":0,"x_max":486,"ha":486,"o":"m 312 36 q 310 12 292 -4 q 274 -20 249 -20 q 199 -20 179 31 q 126 163 17 425 q 11 439 11 453 q 11 479 32 497 q 53 516 81 516 q 123 516 141 477 q 168 418 249 201 q 275 256 320 369 q 334 406 363 474 q 383 513 423 513 q 451 513 472 495 q 493 477 493 450 q 493 432 414 256 q 350 113 312 36 z"},"O":{"x_min":0,"x_max":798,"ha":798,"o":"m 384 -30 q 239 -30 138 53 q 29 142 29 283 q 29 449 133 586 q 250 740 427 740 q 598 740 683 662 q 768 583 768 427 q 768 261 672 126 q 562 -30 384 -30 z m 427 607 q 318 607 241 502 q 168 403 168 283 q 168 202 231 151 q 292 103 384 103 q 491 103 563 208 q 629 304 629 427 q 629 529 583 569 q 539 607 427 607 z"},"(":{"x_min":0,"x_max":366,"ha":366,"o":"m 325 660 q 308 643 281 617 q 230 561 200 456 q 174 363 174 273 q 174 171 198 85 q 230 -29 299 -76 q 360 -119 360 -152 q 360 -177 341 -194 q 322 -211 297 -211 q 277 -211 252 -198 q 35 -81 35 284 q 35 415 89 548 q 151 699 253 768 q 278 784 296 784 q 323 784 342 765 q 360 746 360 721 q 360 696 325 660 z"},"C":{"x_min":0,"x_max":619,"ha":619,"o":"m 539 520 q 495 520 474 566 q 464 588 455 593 q 447 596 416 596 q 354 596 274 500 q 161 367 161 250 q 161 197 197 159 q 232 121 282 121 q 331 121 380 146 q 398 155 455 194 q 493 219 512 219 q 542 219 562 198 q 581 178 581 152 q 581 123 556 102 q 421 -12 282 -12 q 172 -12 97 68 q 24 146 24 250 q 24 414 167 584 q 289 729 416 729 q 438 729 455 727 q 472 726 485 723 q 507 744 537 744 q 587 744 599 687 q 607 646 607 591 q 607 566 593 546 q 574 520 539 520 z"},"W":{"x_min":0,"x_max":1040,"ha":1040,"o":"m 1002 626 q 994 606 982 577 q 974 549 956 493 q 928 421 867 284 q 805 145 778 76 q 758 24 741 -6 q 718 -47 671 -47 q 643 -47 621 -32 q 594 -14 592 15 q 570 71 564 106 q 542 211 504 420 q 473 322 436 244 q 381 127 364 60 q 369 49 369 37 q 369 7 342 -12 q 318 -28 290 -28 q 254 -28 231 -10 q 206 10 205 44 l 189 102 q 173 178 137 329 q 104 445 29 659 q 24 671 24 683 q 24 712 47 729 q 67 745 95 745 q 132 745 154 714 q 167 697 182 652 q 230 514 290 250 q 329 346 370 475 q 402 581 423 625 q 472 731 522 731 q 570 731 592 679 q 603 654 613 589 q 616 569 626 491 q 636 407 688 185 q 739 306 827 534 q 832 548 852 624 q 866 679 888 710 q 911 745 950 745 q 980 745 1000 726 q 1019 708 1019 679 q 1019 669 1002 626 z"},"A":{"x_min":0,"x_max":731,"ha":731,"o":"m 610 -15 q 572 -13 533 76 q 507 134 488 209 q 452 204 370 198 q 293 193 252 186 q 229 132 174 24 q 152 -11 114 -11 q 87 -11 66 7 q 44 25 44 54 q 44 79 116 223 q 109 238 110 251 q 112 274 157 288 q 227 408 312 537 q 434 722 462 722 q 516 722 534 657 q 543 604 564 500 q 594 359 637 178 q 641 165 662 114 q 680 72 680 51 q 680 22 658 3 q 637 -16 610 -15 z m 428 486 q 390 421 323 308 q 345 313 392 316 q 446 319 460 321 q 449 385 428 486 z"},"f":{"x_min":0,"x_max":508,"ha":508,"o":"m 282 501 q 347 507 375 507 q 467 507 467 445 q 467 380 370 383 q 339 384 276 379 q 274 327 275 247 q 277 132 277 116 q 277 26 266 -26 q 255 -78 202 -78 q 174 -78 154 -61 q 134 -43 134 -16 q 134 -10 135 -4 q 146 66 146 127 l 146 372 q 138 371 114 368 q 96 365 86 365 q 56 365 37 383 q 17 400 17 429 q 17 475 65 489 q 86 495 150 497 q 151 506 157 552 q 170 661 216 714 q 272 781 390 781 q 479 781 479 717 q 479 653 396 653 q 337 653 310 612 q 290 581 283 516 z"},"Q":{"x_min":0,"x_max":876,"ha":876,"o":"m 804 -214 q 768 -214 567 -34 q 486 -63 408 -63 q 252 -63 134 56 q 18 174 18 323 q 18 499 154 621 q 287 740 468 740 q 662 740 761 600 q 844 482 844 298 q 844 146 697 36 q 727 9 786 -43 l 841 -87 q 874 -117 874 -146 q 874 -172 854 -192 q 833 -214 804 -214 z m 468 605 q 341 605 250 524 q 157 442 157 323 q 157 229 235 150 q 312 72 408 72 q 420 72 435 73 q 363 142 363 185 q 363 214 386 234 q 407 252 434 252 q 467 252 491 222 q 534 168 587 125 q 705 197 705 298 q 705 433 649 514 q 586 605 468 605 z"},"w":{"x_min":0,"x_max":684,"ha":684,"o":"m 674 430 q 623 239 571 83 q 557 39 523 -8 q 500 -40 461 -40 q 399 -39 364 79 q 351 124 333 247 q 323 225 320 218 q 295 157 246 30 q 239 9 224 -3 q 204 -36 163 -37 q 140 -38 115 4 q 88 46 71 113 q 56 174 24 377 q 18 421 18 446 q 18 473 38 490 q 58 508 86 508 q 139 508 151 456 q 158 429 162 389 q 168 331 169 321 q 176 283 189 196 q 225 295 272 443 q 292 506 347 506 q 401 506 418 436 q 431 386 444 306 q 464 190 469 168 q 473 184 545 465 q 556 507 606 507 q 634 507 656 489 q 677 471 677 444 q 677 439 674 430 z"},"-":{"x_min":0,"x_max":610,"ha":610,"o":"m 427 210 q 359 206 187 206 q 157 206 134 219 q 107 236 107 264 q 107 292 134 309 q 157 323 187 323 q 226 323 303 325 q 380 328 418 328 q 449 328 472 315 q 501 300 501 269 q 501 216 427 210 z"},"E":{"x_min":0,"x_max":625,"ha":625,"o":"m 542 626 q 532 626 521 629 q 442 650 367 650 q 331 650 289 645 q 247 639 199 627 q 199 562 195 434 q 222 436 386 452 q 479 461 504 461 q 533 461 553 443 q 574 425 574 395 q 574 336 512 329 q 473 326 395 319 q 326 311 186 300 q 183 238 183 200 q 183 104 194 91 q 199 84 255 84 q 286 84 347 86 q 408 87 438 87 q 448 87 467 90 q 486 93 495 93 q 523 93 543 77 q 566 59 566 26 q 566 -28 509 -39 q 460 -48 307 -48 q 147 -48 99 -5 q 46 42 46 200 q 46 265 55 396 q 65 527 65 592 q 65 609 60 643 q 55 676 55 693 q 55 768 124 768 q 145 768 163 755 q 220 770 271 777 q 322 784 367 784 q 490 784 564 755 q 609 738 609 693 q 609 668 591 648 q 572 626 542 626 z"},"s":{"x_min":0,"x_max":487,"ha":487,"o":"m 394 357 q 345 357 335 398 q 316 401 295 401 q 178 401 178 369 q 178 350 249 318 q 345 273 379 249 q 450 197 450 133 q 450 49 372 5 q 309 -29 217 -29 q 152 -29 99 -9 q 25 18 25 71 q 25 120 83 120 q 106 120 148 106 q 191 92 214 92 q 313 92 313 132 q 313 157 245 187 q 144 231 116 251 q 47 299 47 369 q 47 467 151 501 q 212 521 336 521 q 385 521 409 508 q 441 491 441 445 q 441 357 394 357 z"},">":{"x_min":0,"x_max":610,"ha":610,"o":"m 488 278 q 371 177 242 102 q 224 91 206 91 q 180 91 161 109 q 143 127 143 150 q 143 177 169 196 q 227 235 339 314 q 283 355 231 404 q 166 466 166 491 q 166 515 185 532 q 205 549 230 549 q 257 549 278 528 q 387 416 474 374 q 513 355 513 324 q 513 300 488 278 z"},"l":{"x_min":0,"x_max":274,"ha":274,"o":"m 200 72 q 200 -21 133 -21 q 104 -21 84 -2 q 65 16 65 45 l 65 721 q 65 749 86 767 q 105 784 134 784 q 163 784 182 766 q 200 749 200 721 z"},"8":{"x_min":0,"x_max":610,"ha":610,"o":"m 300 -26 q 191 -26 122 20 q 42 73 40 176 q 38 320 135 383 q 64 439 64 524 q 64 620 137 684 q 207 744 306 745 q 422 746 480 683 q 530 628 530 534 q 530 480 511 448 q 494 419 454 396 q 514 363 540 319 q 569 270 569 190 q 569 86 488 27 q 414 -26 300 -26 z m 304 625 q 197 625 198 524 q 199 474 291 451 q 342 465 361 477 q 396 498 396 534 q 396 588 373 608 q 353 625 304 625 z m 297 329 q 227 298 204 275 q 171 242 173 182 q 175 134 219 110 q 254 92 300 92 q 376 92 405 124 q 428 149 428 205 q 428 255 388 287 q 358 310 297 329 z"},"\\":{"x_min":0,"x_max":550,"ha":550,"o":"m 449 -69 q 413 -69 393 -36 q 375 -6 335 83 q 289 199 193 430 q 162 500 77 646 q 67 664 67 681 q 67 707 87 725 q 107 744 134 744 q 166 744 187 714 q 248 628 310 485 q 360 364 410 244 q 464 113 507 24 q 515 8 515 -5 q 515 -31 496 -50 q 476 -69 449 -69 z"},"e":{"x_min":0,"x_max":559,"ha":559,"o":"m 296 -22 q 179 -22 105 33 q 23 95 23 207 q 23 330 88 416 q 160 510 283 510 q 368 510 424 483 q 498 447 498 371 q 498 317 438 275 q 410 256 328 220 l 163 147 q 187 122 220 109 q 253 96 296 96 q 361 96 407 123 q 447 147 472 147 q 522 147 522 98 q 522 42 441 7 q 373 -22 296 -22 z m 283 392 q 237 392 205 362 q 173 332 153 271 q 208 295 263 318 q 329 348 368 374 q 335 392 283 392 z"},"b":{"x_min":0,"x_max":593,"ha":593,"o":"m 282 -21 q 213 -21 152 3 q 134 -15 108 -15 q 82 -15 63 3 q 44 21 44 47 q 44 59 45 83 q 47 107 47 119 l 47 672 q 47 707 62 734 q 82 769 118 769 q 170 769 170 712 q 170 706 169 692 q 167 678 167 672 l 167 485 q 203 505 236 515 q 270 525 300 525 q 415 525 486 441 q 552 363 552 252 q 552 139 475 60 q 397 -21 282 -21 z m 300 400 q 275 400 242 385 q 208 371 167 341 q 167 295 167 134 q 234 105 282 105 q 344 105 384 147 q 424 188 424 252 q 424 315 391 357 q 357 400 300 400 z"},"%":{"x_min":0,"x_max":820,"ha":820,"o":"m 216 484 q 139 484 94 537 q 52 584 52 656 q 52 711 109 757 q 163 802 218 802 q 298 802 345 750 q 390 702 390 627 q 390 561 333 520 q 283 484 216 484 z m 619 692 q 602 665 581 619 q 552 554 547 544 q 514 479 451 347 q 449 342 341 126 q 326 90 292 20 q 272 -15 237 -15 q 214 -15 195 1 q 176 18 176 42 q 176 68 250 215 l 339 392 q 385 484 471 671 q 519 783 569 783 q 593 783 612 766 q 631 750 631 726 q 631 710 619 692 z m 615 -10 q 541 -10 492 33 q 439 78 439 150 q 439 226 485 276 q 534 331 614 331 q 687 331 742 292 q 805 247 805 175 q 805 97 752 43 q 698 -10 615 -10 z m 216 686 q 200 686 187 676 q 173 666 173 656 q 173 628 184 614 q 195 600 216 600 q 239 600 254 608 q 269 617 269 627 q 269 657 256 671 q 243 686 216 686 z m 614 216 q 587 216 574 199 q 561 183 561 150 q 561 128 577 117 q 593 105 626 105 q 659 105 672 121 q 684 136 684 175 q 684 191 663 204 q 643 216 614 216 z"},"m":{"x_min":0,"x_max":777,"ha":777,"o":"m 176 432 q 250 518 316 518 q 391 518 426 460 q 456 487 492 500 q 528 513 570 513 q 666 513 700 418 q 707 398 721 286 q 735 207 756 22 q 758 -6 737 -24 q 716 -42 688 -42 q 632 -42 622 14 q 613 64 604 156 q 594 256 588 298 q 575 386 554 386 q 543 386 503 363 q 463 341 444 325 q 444 269 458 165 q 471 58 471 4 q 471 -23 452 -42 q 433 -61 404 -61 q 375 -61 355 -42 q 336 -23 336 4 q 336 60 324 168 q 312 276 312 332 q 312 363 307 382 q 250 349 193 273 q 191 270 185 263 q 183 164 183 108 q 183 94 182 71 q 181 48 181 37 q 181 10 160 -5 q 140 -19 111 -19 q 70 -19 55 17 q 45 42 45 95 l 45 276 q 45 301 43 348 q 41 395 41 419 q 41 463 57 498 q 76 542 110 542 q 138 542 159 521 q 181 500 181 474 q 181 484 176 432 z"},"#":{"x_min":0,"x_max":843,"ha":843,"o":"m 151 307 q 199 426 224 496 q 202 495 166 496 q 121 497 107 497 q 80 497 62 513 q 43 530 43 556 q 43 610 104 616 q 157 618 263 621 l 295 712 q 322 773 352 773 q 417 773 417 714 q 417 688 394 622 l 568 622 q 581 671 603 738 q 618 787 663 787 q 688 787 708 770 q 728 753 728 728 q 728 713 699 623 q 729 624 743 624 q 831 624 831 562 q 831 517 788 503 q 766 497 708 497 q 702 497 687 497 l 666 497 q 645 435 603 307 l 672 307 q 772 307 772 242 q 772 217 754 202 q 736 187 710 187 q 698 187 639 186 q 596 186 568 186 q 555 144 529 48 q 516 -11 454 -11 q 399 -11 399 41 q 399 64 438 187 l 238 187 q 196 86 176 27 q 164 -11 119 -11 q 94 -11 74 5 q 54 22 54 47 q 54 54 104 187 l 48 187 q 21 187 3 209 q -13 229 -13 253 q -13 302 42 307 q 47 308 151 307 z m 357 497 l 286 307 l 473 307 l 534 497 z"},",":{"x_min":0,"x_max":434,"ha":434,"o":"m 259 -61 q 235 -108 221 -136 q 204 -168 167 -168 q 142 -168 124 -152 q 105 -135 105 -114 q 105 -101 137 -38 q 165 18 179 41 q 197 69 229 69 q 255 69 273 53 q 292 36 292 15 q 292 5 259 -61 z"},"n":{"x_min":0,"x_max":523,"ha":523,"o":"m 435 -35 q 375 -35 368 24 q 361 75 354 125 q 347 179 347 227 q 347 239 348 270 q 350 301 350 313 q 350 317 351 331 q 352 345 352 354 q 352 394 331 394 q 286 394 243 342 q 200 289 175 208 q 174 192 171 166 q 168 144 168 123 q 168 109 171 81 q 174 54 174 40 q 174 12 155 -6 q 136 -24 106 -24 q 77 -24 58 -6 q 39 12 39 40 q 39 54 36 81 q 33 109 33 123 q 33 169 40 253 q 47 336 47 383 q 47 398 45 427 q 43 456 43 470 q 43 498 63 515 q 83 533 112 533 q 176 533 180 457 l 181 451 q 252 523 331 523 q 423 523 458 446 q 482 394 482 291 l 482 256 q 481 234 481 225 q 481 187 492 126 q 502 66 502 29 q 502 1 483 -17 q 463 -35 435 -35 z"},"h":{"x_min":0,"x_max":578,"ha":578,"o":"m 195 447 q 230 482 271 499 q 312 517 358 517 q 442 517 479 470 q 506 435 512 362 q 514 302 517 241 q 525 163 527 146 q 534 91 543 51 q 546 41 546 33 q 546 5 525 -12 q 504 -30 477 -30 q 427 -30 413 19 q 401 58 391 130 q 382 199 382 243 q 382 255 384 280 q 385 305 385 317 q 385 353 384 359 q 379 386 358 386 q 304 386 260 336 q 238 311 199 241 q 199 64 182 28 q 163 -12 121 -12 q 94 -12 73 7 q 51 25 51 52 q 51 61 57 78 q 60 88 62 209 q 60 308 63 536 l 64 552 q 67 610 67 629 q 67 645 63 674 q 58 704 58 719 q 58 747 78 764 q 98 782 126 782 q 175 782 191 730 q 201 701 201 641 q 201 592 198 542 q 195 494 195 447 z"},"z":{"x_min":0,"x_max":538,"ha":538,"o":"m 370 247 q 288 136 268 111 q 298 112 317 112 q 337 112 374 105 q 412 98 431 98 q 460 98 479 79 q 499 61 499 33 q 499 5 479 -13 q 460 -31 431 -31 q 411 -31 374 -24 q 336 -17 317 -17 q 208 -17 113 -35 q 100 -38 91 -38 q 64 -38 45 -23 q 24 -7 24 20 q 24 51 55 77 q 176 180 309 378 q 279 376 251 376 q 176 376 100 387 q 40 396 40 451 q 40 478 58 497 q 77 516 105 516 q 129 516 178 510 q 227 505 251 505 q 284 505 351 510 q 417 514 450 514 q 511 514 511 464 q 511 420 470 373 q 428 326 370 247 z"},"B":{"x_min":0,"x_max":630,"ha":630,"o":"m 432 19 q 318 -23 144 -23 q 115 -23 92 1 q 68 25 68 53 l 68 571 q 67 604 66 637 q 64 675 68 701 q 75 747 154 756 q 191 767 277 767 q 369 767 454 708 q 553 638 553 534 q 553 478 532 439 q 516 408 476 373 q 523 350 560 303 q 602 251 602 200 q 602 135 531 77 q 483 39 432 19 z m 277 635 q 214 635 201 634 l 202 530 l 201 428 q 246 422 268 424 q 417 436 417 534 q 417 569 374 601 q 328 635 277 635 z m 334 290 q 290 290 201 293 l 201 110 q 285 115 383 143 q 469 167 468 195 q 467 233 413 262 q 371 286 334 290 z"},"K":{"x_min":0,"x_max":611,"ha":611,"o":"m 193 216 l 192 11 q 192 -11 180 -29 q 163 -54 130 -54 q 92 -54 70 -22 q 53 2 53 30 q 53 138 60 355 q 66 573 66 681 q 66 708 86 728 q 105 748 135 748 q 164 748 183 728 q 203 708 203 681 q 203 637 198 562 q 193 476 192 444 q 226 476 445 715 q 468 740 497 740 q 525 740 546 720 q 566 701 566 673 q 566 643 450 516 q 364 422 269 332 q 322 281 376 231 q 438 173 488 136 q 513 118 542 109 q 594 92 594 45 q 594 24 581 4 q 563 -22 531 -22 q 461 -22 350 69 q 316 97 193 216 z"},"R":{"x_min":0,"x_max":640,"ha":640,"o":"m 550 -6 q 523 -6 501 15 q 354 153 176 207 q 182 65 182 49 q 182 21 162 2 q 143 -17 113 -17 q 84 -17 64 2 q 45 21 45 49 q 45 86 46 159 q 47 232 47 269 l 48 663 q 48 694 67 720 q 92 753 136 750 q 254 741 257 741 q 326 732 374 708 q 582 603 582 448 q 582 384 538 335 q 495 286 407 252 q 537 180 602 104 q 619 85 619 61 q 619 34 599 14 q 578 -6 550 -6 z m 237 608 q 233 609 180 612 l 180 353 q 192 353 201 353 q 321 353 378 382 q 403 395 424 416 q 445 437 445 448 q 445 502 375 553 q 310 601 237 608 z"},"T":{"x_min":0,"x_max":696,"ha":696,"o":"m 633 585 q 595 585 514 591 q 437 596 396 596 q 397 540 409 397 q 419 271 419 198 q 419 182 422 149 q 426 116 426 100 q 426 63 410 34 q 390 -4 353 -4 q 326 -4 306 13 q 283 32 283 61 q 283 68 285 82 q 288 96 288 103 q 288 125 284 171 q 281 216 281 239 q 281 305 271 417 q 259 545 257 594 l 232 594 q 123 594 59 609 q 5 623 5 673 q 5 698 22 718 q 43 742 76 740 q 93 739 154 731 q 202 726 232 726 q 262 726 321 727 q 380 728 410 728 q 447 728 521 723 q 596 718 633 718 q 662 718 682 699 q 702 680 702 652 q 702 624 682 605 q 662 585 633 585 z"},"P":{"x_min":0,"x_max":533,"ha":533,"o":"m 202 272 q 193 272 161 276 q 158 208 158 51 q 158 25 140 7 q 122 -12 94 -12 q 66 -12 48 7 q 29 25 29 51 l 29 188 q 29 263 39 412 q 48 562 49 637 q 49 764 120 758 q 137 763 166 765 q 195 767 237 767 q 333 767 417 705 q 510 636 510 536 q 510 411 411 337 q 323 272 202 272 z m 226 641 q 210 641 198 641 q 187 641 178 640 q 178 617 178 571 q 177 517 168 402 q 193 398 202 398 q 278 398 328 434 q 382 473 382 536 q 382 578 332 610 q 283 641 226 641 z"},"|":{"x_min":0,"x_max":421,"ha":421,"o":"m 217 -177 q 153 -177 152 -56 q 152 -42 152 -14 q 153 13 153 24 l 153 777 q 153 803 172 820 q 190 837 217 837 q 245 837 262 820 q 279 803 279 777 l 279 -104 q 278 -129 266 -149 q 249 -177 217 -177 z"},"t":{"x_min":0,"x_max":471,"ha":471,"o":"m 395 393 q 384 393 370 394 q 356 395 346 395 q 326 395 300 391 q 309 193 309 133 q 309 126 309 109 q 310 92 310 81 q 310 -31 239 -31 q 212 -31 192 -15 q 171 3 171 29 q 171 47 172 82 q 174 117 174 135 q 174 194 165 388 q 135 389 73 396 q 12 402 12 459 q 12 486 31 505 q 49 524 79 524 q 97 524 162 519 q 161 534 159 570 q 157 602 157 619 q 157 646 177 664 q 197 682 226 682 q 298 682 298 561 l 297 521 q 327 525 346 525 q 402 525 423 518 q 462 504 462 458 q 462 430 443 412 q 424 393 395 393 z"},"M":{"x_min":0,"x_max":883,"ha":883,"o":"m 258 386 q 236 307 197 147 q 188 92 179 37 q 159 -32 105 -32 q 71 -32 52 -9 q 35 10 35 37 q 35 116 69 230 q 119 400 123 419 q 137 494 152 569 q 174 673 199 707 q 225 742 264 742 q 309 742 330 697 q 349 654 372 523 q 393 396 436 249 q 491 394 539 567 l 566 679 q 593 749 648 749 q 701 749 727 668 q 738 635 750 546 q 778 338 821 189 q 865 39 865 25 q 865 -3 842 -23 q 820 -41 793 -41 q 740 -41 714 36 l 687 154 q 664 242 636 406 q 614 341 563 201 l 534 111 q 516 58 497 23 q 471 -22 424 -22 q 378 -22 354 32 l 327 123 q 289 248 258 386 z"},"g":{"x_min":0,"x_max":531,"ha":531,"o":"m 502 291 q 482 176 478 49 q 473 -109 425 -180 q 361 -275 199 -275 q 9 -275 9 -200 q 9 -173 26 -157 q 43 -140 71 -140 q 93 -140 134 -148 q 175 -157 207 -157 q 279 -157 314 -112 q 347 -69 353 26 q 328 0 297 -12 q 266 -25 229 -25 q 131 -25 71 38 q 10 102 10 200 q 10 333 91 415 q 175 500 318 500 q 364 500 397 489 q 430 478 451 455 q 513 447 513 381 q 513 349 502 291 z m 313 389 q 230 389 185 334 q 144 285 144 207 q 144 148 166 119 q 188 90 231 90 q 271 90 312 136 q 350 180 355 223 q 365 270 377 369 q 360 379 344 384 q 328 389 313 389 z"},"j":{"x_min":0,"x_max":403,"ha":403,"o":"m 228 584 q 197 584 174 605 q 151 626 151 657 q 151 688 174 709 q 197 730 228 730 q 259 730 282 709 q 305 688 305 657 q 305 626 282 605 q 259 584 228 584 z m 205 -91 q 205 -40 188 179 q 171 398 171 439 q 171 469 188 492 q 208 519 240 519 q 263 519 285 503 q 310 487 311 465 q 316 372 327 194 q 340 -42 340 -96 q 340 -167 295 -226 q 246 -292 173 -292 q 55 -292 -21 -125 q -28 -108 -28 -94 q -28 -67 -7 -48 q 14 -30 42 -30 q 73 -30 97 -63 q 114 -95 132 -126 q 152 -160 173 -160 q 198 -160 205 -91 z"},"i":{"x_min":0,"x_max":280,"ha":280,"o":"m 161 587 q 130 587 107 608 q 84 629 84 659 q 84 689 107 710 q 130 731 161 731 q 192 731 215 710 q 238 689 238 659 q 238 629 215 608 q 192 587 161 587 z m 203 229 q 203 201 204 140 q 206 78 206 50 q 206 22 187 4 q 168 -15 139 -15 q 109 -15 90 4 q 71 22 71 50 q 71 78 70 140 q 68 201 68 229 q 68 272 73 338 q 78 403 78 447 q 78 475 97 493 q 116 512 145 512 q 174 512 193 493 q 212 475 212 447 q 212 403 208 338 q 203 272 203 229 z"},"y":{"x_min":0,"x_max":553,"ha":553,"o":"m 535 413 q 482 302 367 64 q 304 -63 271 -147 q 261 -177 239 -237 q 222 -283 177 -283 q 149 -283 128 -265 q 107 -247 107 -219 q 107 -174 210 50 q 157 156 40 362 q 28 380 16 399 q 3 422 3 440 q 3 467 24 487 q 45 507 72 507 q 104 507 123 483 q 192 391 284 205 q 336 321 348 345 q 382 417 416 473 q 437 508 473 508 q 500 508 522 489 q 543 471 543 444 q 543 430 535 413 z"},"@":{"x_min":0,"x_max":931,"ha":931,"o":"m 638 189 q 604 189 570 206 q 536 222 502 254 q 481 232 449 215 q 414 197 387 197 q 326 197 271 244 q 217 292 217 351 q 217 445 293 521 q 371 599 469 599 q 528 599 528 549 q 528 513 483 493 q 402 458 399 457 q 354 426 354 361 q 354 354 363 344 q 373 331 387 330 q 421 329 446 363 l 484 427 q 508 461 539 461 q 590 461 590 402 q 590 393 587 374 q 583 355 583 345 q 583 327 603 323 q 606 323 638 323 q 695 323 716 347 q 736 370 736 428 q 736 534 648 601 q 565 663 450 663 q 318 663 243 567 q 174 481 174 348 q 174 228 254 145 q 337 60 468 60 q 516 60 636 103 q 662 112 671 112 q 700 112 720 91 q 740 70 740 43 q 740 -6 628 -41 q 539 -68 469 -68 q 289 -68 163 49 q 34 168 34 348 q 34 534 142 660 q 258 796 450 796 q 622 796 745 697 q 875 591 875 428 q 875 316 816 254 q 755 189 638 189 z"},".":{"x_min":0,"x_max":434,"ha":434,"o":"m 215 -51 q 183 -51 159 -31 q 135 -10 135 15 q 135 41 159 62 q 183 83 215 83 q 250 83 272 63 q 295 43 295 15 q 295 -11 271 -31 q 248 -51 215 -51 z"},"p":{"x_min":0,"x_max":535,"ha":535,"o":"m 275 -29 q 233 -29 187 -19 l 187 -218 q 187 -247 167 -265 q 148 -284 119 -284 q 90 -284 71 -265 q 52 -247 52 -218 q 52 -195 53 -36 q 54 82 53 157 q 51 262 46 338 q 39 443 39 435 q 39 475 57 504 q 78 537 113 537 q 141 537 159 518 q 178 500 178 474 l 177 469 q 210 487 243 496 q 276 505 309 505 q 421 505 473 410 q 512 338 512 224 q 512 117 451 47 q 385 -29 275 -29 z m 309 375 q 278 375 247 361 q 215 346 183 317 q 188 217 188 116 q 232 102 275 102 q 326 102 353 137 q 377 169 377 224 q 377 290 371 315 q 357 375 309 375 z"},"X":{"x_min":0,"x_max":724,"ha":724,"o":"m 680 632 q 616 559 581 509 q 543 455 461 352 q 513 280 564 208 q 625 125 673 70 q 691 50 691 26 q 691 -1 670 -21 q 649 -41 621 -41 q 573 -41 495 70 q 474 103 430 166 q 409 194 368 250 q 308 183 215 83 q 186 50 125 -13 q 104 -34 76 -34 q 47 -34 26 -14 q 5 6 5 33 q 5 57 22 76 q 52 107 111 170 q 176 240 284 361 q 234 423 180 486 q 175 491 124 557 q 90 601 62 623 q 34 645 34 675 q 34 701 54 722 q 74 743 104 743 q 130 743 173 706 q 204 678 225 651 q 245 623 286 571 q 333 518 376 463 q 438 544 499 625 q 593 743 628 743 q 656 743 677 723 q 698 703 698 676 q 698 653 680 632 z"},"*":{"x_min":0,"x_max":530,"ha":530,"o":"m 438 566 q 402 559 354 554 q 438 470 438 439 q 438 415 418 398 q 398 381 373 381 q 346 381 318 409 q 298 434 277 458 q 258 480 243 494 q 142 398 106 398 q 80 398 61 416 q 42 434 42 457 q 42 479 67 502 q 88 520 110 537 q 124 548 132 555 q 72 574 43 585 q 3 602 3 636 q 3 659 21 678 q 39 696 66 696 q 80 696 177 662 q 175 704 175 721 q 175 746 193 762 q 211 778 238 778 q 265 778 283 762 q 301 746 301 721 q 301 691 303 667 q 392 680 428 680 q 455 680 472 662 q 490 645 490 622 q 490 576 438 566 z"},"Y":{"x_min":0,"x_max":635,"ha":635,"o":"m 589 603 q 564 551 489 381 q 427 238 383 157 q 307 17 301 8 q 272 -34 235 -34 q 208 -34 188 -17 q 165 3 165 32 q 165 56 267 233 q 229 287 159 397 q 106 479 4 642 q -5 659 -5 677 q -5 705 17 725 q 37 743 64 743 q 97 743 123 710 l 160 651 q 163 646 244 509 q 294 421 333 371 q 371 445 440 597 q 455 630 484 699 q 503 743 548 743 q 575 743 595 725 q 618 706 618 677 q 618 661 589 603 z"},"c":{"x_min":0,"x_max":514,"ha":514,"o":"m 274 -31 q 167 -31 94 30 q 18 95 18 200 q 18 297 86 401 q 165 519 268 519 q 319 519 387 492 q 469 458 469 414 q 469 390 453 372 q 435 352 407 352 q 386 352 357 374 q 327 397 268 397 q 230 397 187 323 q 145 252 145 200 q 145 149 182 120 q 217 92 274 92 q 307 92 354 117 q 402 142 415 142 q 441 142 460 123 q 479 104 479 79 q 479 41 396 3 q 321 -31 274 -31 z"},"!":{"x_min":0,"x_max":238,"ha":238,"o":"m 118 145 q 91 145 73 162 q 55 179 55 205 q 55 224 54 262 q 53 300 53 319 q 53 386 54 521 q 55 656 55 723 q 55 749 73 766 q 91 784 118 784 q 145 784 163 766 q 181 749 181 723 l 181 205 q 181 179 163 162 q 146 145 118 145 z m 117 -32 q 87 -32 62 -1 q 39 28 39 53 q 39 78 59 95 q 79 112 104 112 q 134 112 159 81 q 182 52 182 28 q 182 3 162 -15 q 142 -32 117 -32 z"},"/":{"x_min":0,"x_max":512,"ha":512,"o":"m 487 702 q 468 661 432 575 q 399 489 338 375 q 285 278 232 181 q 222 162 144 -5 q 125 -44 86 -44 q 61 -44 42 -28 q 21 -10 21 15 q 21 26 26 38 q 64 138 170 326 q 275 515 314 616 q 343 693 357 720 q 396 795 429 794 q 454 793 473 777 q 494 759 494 734 q 494 719 487 702 z"},"[":{"x_min":0,"x_max":376,"ha":376,"o":"m 300 -204 q 286 -204 258 -202 q 229 -201 215 -201 q 204 -201 182 -202 q 160 -204 149 -204 q 66 -204 66 -130 q 66 -42 68 133 q 69 309 69 396 q 69 443 67 538 q 66 632 66 679 q 66 706 87 724 q 108 742 135 742 q 152 742 186 741 q 219 740 236 740 q 245 740 263 741 q 282 742 291 742 q 320 742 338 724 q 355 707 355 678 q 355 611 237 611 q 231 611 197 612 l 197 -73 l 215 -73 q 230 -72 257 -74 q 288 -75 300 -75 q 327 -75 345 -94 q 362 -112 362 -139 q 362 -167 345 -185 q 327 -204 300 -204 z"},"6":{"x_min":0,"x_max":610,"ha":610,"o":"m 301 -35 q 163 -35 97 62 q 44 141 44 268 q 44 505 246 680 q 271 704 297 728 q 333 760 356 760 q 383 760 403 741 q 424 723 425 697 q 426 673 369 619 q 329 582 289 545 q 244 501 224 459 q 250 469 273 474 q 295 479 314 479 q 437 479 503 415 q 570 352 570 238 q 570 120 500 44 q 425 -35 301 -35 z m 301 347 q 265 347 236 335 q 221 329 180 305 q 178 285 178 268 q 178 175 209 129 q 241 83 303 83 q 367 83 402 126 q 436 167 436 238 q 436 292 402 320 q 369 347 301 347 z"},"r":{"x_min":0,"x_max":480,"ha":480,"o":"m 459 352 q 455 277 391 277 q 330 277 330 341 l 327 390 q 217 373 170 277 l 170 32 q 170 4 151 -14 q 132 -33 103 -33 q 73 -33 56 -13 q 41 4 41 32 l 41 352 q 41 367 42 397 q 42 427 42 442 q 42 469 59 488 q 75 506 105 506 q 160 506 170 450 q 256 515 362 515 q 459 515 459 385 q 459 360 459 352 z"},"2":{"x_min":0,"x_max":610,"ha":610,"o":"m 492 -1 q 480 -1 454 3 q 429 7 417 7 l 274 8 q 255 8 218 3 q 180 -1 161 -1 q 156 -1 146 0 q 135 2 130 2 q 86 2 70 38 q 61 61 61 107 q 61 199 101 260 q 132 308 202 355 q 268 398 333 441 q 411 498 411 569 q 411 587 380 606 q 349 624 320 624 q 268 624 210 578 q 152 532 131 532 q 105 532 85 544 q 61 560 61 588 q 61 618 85 639 q 145 691 188 715 q 252 750 320 750 q 404 750 472 706 q 550 655 550 573 q 550 490 512 432 q 482 385 417 341 q 356 303 295 265 q 203 204 196 126 q 223 130 275 134 q 379 140 424 140 q 466 140 507 122 q 558 99 558 64 q 558 39 540 20 q 521 -1 492 -1 z"},"{":{"x_min":0,"x_max":366,"ha":366,"o":"m 299 669 q 286 668 259 667 q 208 661 208 585 q 208 565 211 490 q 214 414 214 394 q 214 366 197 333 q 180 297 155 276 q 206 209 206 166 q 206 150 202 119 q 198 88 198 73 q 198 35 210 -6 q 227 -62 255 -62 q 302 -62 320 -69 q 351 -83 351 -124 q 351 -188 255 -188 q 165 -188 111 -91 q 68 -14 68 73 q 68 85 72 111 q 76 137 76 150 q 76 179 30 210 q -17 241 -17 272 q -17 301 20 337 q 51 368 84 384 q 84 405 82 478 q 80 555 80 572 q 80 733 189 778 q 225 793 261 793 q 293 793 322 779 q 360 759 360 723 q 360 678 299 669 z"},"9":{"x_min":0,"x_max":610,"ha":610,"o":"m 386 265 q 356 254 331 249 q 307 244 287 244 q 189 244 116 297 q 26 361 26 481 q 26 620 118 690 q 195 750 318 750 q 417 750 493 674 q 574 595 574 483 q 575 361 527 246 q 475 122 385 58 q 348 32 268 -5 q 176 -46 138 -46 q 109 -46 90 -26 q 72 -7 72 19 q 72 58 119 78 q 159 91 199 104 q 271 131 311 166 q 352 201 386 265 z m 304 633 q 232 633 196 597 q 160 562 159 489 q 159 431 202 398 q 240 369 301 369 q 326 369 359 384 q 393 399 435 429 q 440 463 440 483 q 439 534 394 584 q 348 633 304 633 z"}," ":{"x_min":0,"x_max":434,"ha":434,"o":""},"I":{"x_min":0,"x_max":546,"ha":546,"o":"m 467 577 q 442 577 328 591 q 321 501 321 352 l 321 133 q 386 134 453 134 q 482 134 502 115 q 521 95 521 68 q 521 41 502 21 q 482 2 453 2 q 426 2 371 1 q 316 0 289 0 q 257 0 192 -9 q 128 -18 96 -18 q 66 -18 47 2 q 28 21 28 48 q 28 76 47 95 q 66 115 96 115 q 129 115 183 122 q 182 180 182 343 q 182 476 192 596 l 86 593 q 57 593 37 612 q 17 631 17 660 q 17 688 37 707 q 55 723 81 726 q 124 729 230 729 q 326 729 477 709 q 537 701 537 642 q 537 610 513 592 q 493 577 467 577 z"},"H":{"x_min":0,"x_max":768,"ha":768,"o":"m 733 677 q 723 642 723 615 q 723 602 720 573 q 718 544 718 531 q 718 484 713 393 q 708 302 708 255 q 708 220 713 149 q 719 78 719 42 q 719 16 700 -3 q 681 -21 652 -21 q 624 -21 603 -3 q 582 15 582 42 q 582 77 578 148 q 575 220 575 255 q 575 283 576 305 q 500 301 387 281 q 293 264 199 246 q 198 213 192 135 q 188 67 188 23 q 188 -3 168 -22 q 149 -41 121 -41 q 93 -41 74 -22 q 55 -3 55 23 q 55 73 63 171 q 72 269 72 318 q 72 381 75 507 q 78 632 78 695 q 78 722 97 740 q 116 759 144 759 q 172 759 191 740 q 210 722 210 695 q 210 658 208 583 q 205 509 205 472 q 205 459 202 425 q 199 393 199 375 l 387 411 q 497 430 576 433 q 578 466 583 609 q 583 646 605 695 q 633 755 667 755 q 693 755 713 738 q 735 720 735 692 q 735 685 733 677 z"},"4":{"x_min":0,"x_max":610,"ha":610,"o":"m 355 202 l 161 202 q 4 202 4 266 q 4 292 31 326 q 54 351 77 377 q 155 489 316 711 q 354 762 416 762 q 444 762 465 747 q 490 729 490 698 l 491 331 q 555 329 576 317 q 600 304 600 266 q 601 225 563 210 q 537 200 491 202 q 492 131 490 49 q 490 22 473 5 q 456 -13 426 -13 q 352 -13 355 85 z m 355 550 q 308 475 209 331 l 355 331 z"},"~":{"x_min":0,"x_max":610,"ha":610,"o":"m 417 228 q 356 228 308 262 q 283 279 232 336 l 221 348 q 190 348 142 278 q 122 249 87 249 q 62 249 43 263 q 22 279 22 301 q 22 313 29 326 q 57 378 103 413 q 158 456 221 456 q 269 456 307 426 q 309 424 361 370 q 392 339 420 337 q 424 337 438 375 q 462 439 506 439 q 570 439 570 377 q 570 325 528 279 q 481 228 417 228 z"},"D":{"x_min":0,"x_max":722,"ha":722,"o":"m 138 -5 q 109 -4 89 15 q 70 34 70 62 q 70 110 74 208 q 79 306 79 354 q 79 409 77 517 q 75 625 75 680 q 75 707 101 733 q 126 760 156 760 q 172 760 237 729 q 312 693 327 689 q 470 643 571 545 q 691 430 691 290 q 691 205 650 129 q 608 51 536 4 q 455 -48 308 -48 q 272 -48 226 -38 q 170 -25 138 -5 z m 412 497 q 365 527 209 591 l 209 107 q 228 95 253 89 q 277 83 308 83 q 413 83 459 112 q 502 140 528 188 q 554 236 554 288 q 554 409 412 497 z"},"^":{"x_min":0,"x_max":610,"ha":610,"o":"m 460 557 q 437 557 416 574 q 381 607 310 672 q 191 548 148 548 q 122 548 103 565 q 84 582 84 604 q 84 626 105 643 q 131 665 252 785 q 272 804 297 804 q 330 804 370 774 q 384 764 429 723 q 479 676 507 650 q 525 632 525 613 q 525 590 506 574 q 486 557 460 557 z"},"0":{"x_min":0,"x_max":610,"ha":610,"o":"m 298 -19 q 137 -19 64 121 q 10 224 10 388 q 10 527 81 633 q 166 759 313 759 q 453 759 530 646 q 595 551 595 417 q 595 199 521 90 q 447 -19 298 -19 z m 313 632 q 234 632 186 554 q 144 485 144 395 q 144 276 167 211 q 203 107 298 107 q 378 107 418 180 q 458 253 458 399 q 458 516 422 574 q 386 632 313 632 z"},"F":{"x_min":0,"x_max":607,"ha":607,"o":"m 516 610 q 504 610 491 615 q 428 635 337 635 q 307 635 268 631 q 229 627 182 620 q 183 526 182 458 q 256 477 305 477 q 396 477 463 468 q 526 460 526 402 q 526 374 506 354 q 486 335 458 335 q 432 335 381 339 q 331 343 305 343 q 270 343 182 321 l 182 15 q 182 -14 160 -33 q 138 -52 109 -52 q 81 -52 63 -33 q 45 -14 45 15 l 45 574 q 45 593 46 632 q 47 670 47 689 q 47 718 66 737 q 85 756 115 756 q 133 756 147 749 q 204 759 251 763 q 299 768 337 768 q 393 768 477 745 q 583 716 583 678 q 583 650 563 630 q 543 610 516 610 z"},"`":{"x_min":0,"x_max":556,"ha":556,"o":"m 236 575 q 205 575 185 600 q 162 630 138 660 q 112 691 80 712 q 53 730 53 755 q 53 777 72 794 q 90 811 116 811 q 156 811 229 735 q 301 662 301 629 q 301 606 281 591 q 262 575 236 575 z"},"k":{"x_min":0,"x_max":540,"ha":540,"o":"m 460 -20 q 422 -20 402 17 q 378 62 330 122 q 256 216 251 222 q 212 193 187 178 q 182 110 182 48 q 182 20 163 1 q 144 -17 115 -17 q 46 -17 46 65 q 46 104 52 180 q 57 257 57 296 q 57 367 59 458 q 62 549 62 619 q 62 640 59 668 q 57 697 57 718 q 57 746 76 764 q 95 783 125 783 q 154 783 173 764 q 192 746 192 718 q 192 696 194 667 q 197 638 197 616 q 197 558 194 479 q 191 402 191 343 q 258 394 394 529 q 415 551 442 551 q 470 551 491 531 q 512 511 512 484 q 512 462 493 441 q 435 376 355 306 l 457 175 q 531 77 531 44 q 531 18 509 -1 q 488 -20 460 -20 z"},"u":{"x_min":0,"x_max":520,"ha":520,"o":"m 478 282 q 478 250 478 184 q 479 118 479 85 q 479 75 480 54 q 482 34 482 24 q 482 -3 462 -21 q 442 -39 414 -39 q 373 -39 354 -2 q 292 -25 225 -25 q 156 -25 108 4 q 55 38 45 102 q 26 224 26 320 q 26 384 41 465 q 50 521 106 521 q 135 521 155 503 q 175 485 175 458 q 175 436 168 390 q 161 344 161 320 q 161 251 165 200 q 170 148 179 115 q 191 109 203 106 q 214 104 225 104 q 279 104 344 119 q 344 157 344 205 q 343 262 343 287 q 343 387 352 459 q 359 518 418 518 q 447 518 468 500 q 488 481 487 454 q 478 268 478 282 z"},"]":{"x_min":0,"x_max":376,"ha":376,"o":"m 92 -204 q 106 -204 135 -202 q 164 -201 178 -201 q 189 -201 211 -202 q 232 -204 244 -204 q 326 -204 326 -130 q 326 -42 325 133 q 324 309 324 396 q 324 443 325 538 q 327 632 327 679 q 327 706 306 724 q 285 742 257 742 q 241 742 207 741 q 173 740 157 740 q 147 740 129 741 q 111 742 102 742 q 73 742 55 724 q 37 707 37 678 q 37 611 155 611 q 161 611 195 612 l 195 -73 l 178 -73 q 162 -72 135 -74 q 104 -75 92 -75 q 65 -75 48 -94 q 30 -112 30 -139 q 30 -167 48 -185 q 65 -204 92 -204 z"},"U":{"x_min":0,"x_max":737,"ha":737,"o":"m 563 84 q 528 36 478 4 q 416 -35 351 -35 q 227 -35 166 13 q 38 114 38 364 q 38 388 41 435 q 43 482 43 506 q 43 525 44 563 q 45 601 45 620 q 45 659 59 694 q 78 740 112 740 q 139 740 160 722 q 182 704 182 674 q 182 646 181 590 q 181 534 181 505 q 181 482 178 435 q 176 387 176 364 q 176 288 193 223 q 214 146 253 115 q 274 99 351 98 q 480 96 525 317 q 548 432 548 640 q 548 667 564 692 q 586 726 627 726 q 660 726 677 702 q 689 684 689 662 q 689 469 671 361 q 644 194 563 84 z"},"o":{"x_min":0,"x_max":526,"ha":526,"o":"m 251 -29 q 161 -29 96 33 q 24 101 21 214 q 18 322 80 407 q 154 506 287 506 q 384 506 442 428 q 494 358 494 254 q 494 141 433 61 q 365 -29 251 -29 z m 280 377 q 220 378 186 323 q 156 276 156 214 q 156 156 189 125 q 216 100 251 100 q 293 100 325 128 q 360 162 363 220 q 369 377 280 377 z"},"N":{"x_min":0,"x_max":813,"ha":813,"o":"m 772 120 q 772 96 764 43 q 754 -20 692 -20 q 658 -20 615 19 q 427 188 191 494 q 188 367 188 338 q 188 299 190 222 q 191 144 191 105 q 191 -39 121 -39 q 85 -39 64 -17 q 45 3 45 31 q 45 50 48 90 q 51 129 51 149 q 51 178 53 235 q 55 293 55 322 q 55 353 54 415 q 52 477 52 507 q 52 537 46 595 q 41 653 41 682 q 41 711 66 734 q 91 757 123 757 q 159 757 203 695 q 425 378 641 179 q 641 194 641 253 q 641 494 636 578 q 635 592 630 630 q 625 665 625 684 q 625 751 696 751 q 776 751 776 506 q 776 500 775 429 q 772 181 772 120 z"},"+":{"x_min":0,"x_max":610,"ha":610,"o":"m 481 255 q 476 255 464 257 q 453 259 446 259 q 433 259 407 258 q 382 257 368 257 q 369 241 368 214 q 368 180 368 171 q 368 146 350 130 q 332 113 305 113 q 278 113 260 130 q 242 146 242 171 q 242 165 241 255 q 204 253 177 253 q 142 253 115 266 q 82 282 82 312 q 82 350 113 361 q 130 368 177 368 q 205 368 241 370 q 241 375 240 389 q 240 404 240 413 q 240 511 306 511 q 332 511 351 495 q 370 479 370 455 q 370 447 368 430 q 366 414 366 406 l 367 372 q 378 371 384 371 q 394 371 413 372 q 433 373 443 373 q 543 373 543 314 q 543 291 526 273 q 508 255 481 255 z"},"G":{"x_min":0,"x_max":680,"ha":680,"o":"m 652 287 q 619 142 518 54 q 416 -34 279 -34 q 149 -34 84 35 q 19 104 19 241 q 19 366 81 497 q 142 628 239 710 q 307 767 384 767 q 432 767 513 733 q 610 692 610 646 q 610 620 590 599 q 570 579 541 579 q 526 579 476 606 q 426 634 384 634 q 340 634 266 539 q 157 401 157 241 q 157 159 181 130 q 206 99 279 99 q 354 99 410 142 q 470 187 499 272 q 386 264 302 226 q 287 219 271 219 q 241 219 221 242 q 203 262 203 287 q 203 362 380 392 q 479 408 612 408 q 642 408 661 389 q 681 370 681 342 q 681 307 652 287 z"},"q":{"x_min":0,"x_max":520,"ha":520,"o":"m 463 151 q 452 62 441 -27 q 429 -126 429 -206 q 429 -234 410 -253 q 391 -271 361 -271 q 294 -271 294 -190 q 294 -178 295 -165 q 300 -130 309 -24 q 289 -29 272 -29 q 159 -29 87 28 q 10 89 10 198 q 10 341 95 429 q 184 520 335 519 q 361 519 377 506 q 395 517 412 517 q 440 517 460 496 q 480 476 480 449 q 480 311 463 151 z m 333 400 q 308 403 303 402 q 222 388 181 324 q 146 270 146 196 q 146 149 176 120 q 209 87 269 89 q 302 90 319 126 q 341 174 342 296 q 342 304 348 399 q 342 399 333 400 z"},"d":{"x_min":0,"x_max":587,"ha":587,"o":"m 407 491 q 414 657 422 721 q 431 778 486 778 q 515 778 532 760 q 550 741 550 714 q 550 644 539 503 q 528 363 528 292 q 528 120 539 61 q 541 53 541 47 q 541 20 521 3 q 501 -15 476 -15 q 439 -15 422 18 q 389 -2 353 -12 q 317 -22 279 -22 q 170 -22 98 47 q 24 119 24 229 q 24 360 98 441 q 172 522 292 522 q 329 522 357 514 q 386 506 407 491 z m 397 337 q 381 368 355 383 q 330 398 294 398 q 222 398 186 356 q 149 314 149 231 q 149 178 188 141 q 228 103 279 103 q 317 103 336 112 q 350 118 381 143 q 390 150 397 158 q 396 182 397 337 z"},"1":{"x_min":0,"x_max":610,"ha":610,"o":"m 401 0 l 208 0 q 115 0 115 58 q 115 124 218 124 q 228 124 240 123 l 240 556 q 197 527 185 527 q 157 527 137 546 q 117 566 117 592 q 117 619 149 647 l 205 687 l 264 735 q 301 761 335 761 q 379 761 379 708 q 379 650 374 545 q 369 439 369 244 l 369 125 l 401 125 q 430 125 449 107 q 468 89 468 62 q 468 36 449 18 q 430 0 401 0 z"},"5":{"x_min":0,"x_max":610,"ha":610,"o":"m 274 -31 q 125 -31 54 76 q 42 94 42 111 q 42 138 63 156 q 84 175 111 175 q 138 175 158 154 q 192 119 195 116 q 224 96 274 96 q 350 96 400 151 q 448 204 448 280 q 448 353 424 389 q 400 425 351 425 q 265 425 213 369 q 192 346 171 323 q 145 298 115 298 q 87 298 68 317 q 49 336 49 362 q 49 373 57 447 q 73 590 73 637 q 73 649 65 669 q 56 690 56 702 q 56 726 81 739 q 101 749 127 749 q 137 749 156 747 q 176 745 186 745 l 421 745 q 430 745 458 748 q 487 750 497 750 q 523 750 540 734 q 557 717 557 690 q 557 618 409 618 q 397 618 380 618 q 362 619 356 619 l 210 619 q 209 589 198 520 q 262 551 351 551 q 470 551 531 463 q 583 390 583 280 q 583 147 500 60 q 415 -31 274 -31 z"}}}
